<svg width="252" height="60" viewBox="0 0 252 60" fill="none" xmlns="http://www.w3.org/2000/svg">
<path d="M251.01 0.35997H0.450195V59.1H251.01V0.35997Z" fill="white"/>
<path d="M51.5901 5.70999H5.1001V53.76H51.5901V5.70999Z" fill="white"/>
<path d="M246.38 5.70999H51.5901V53.75H246.38V5.70999Z" fill="#1B4584"/>
<path fill-rule="evenodd" clip-rule="evenodd" d="M57.3498 43.62L57.3398 16.27L66.2998 16.24V25.46H74.7898V16.24L83.7498 16.22L83.7698 43.61H74.7898V33H66.3098L66.3298 43.61L57.3498 43.62Z" fill="white"/>
<path fill-rule="evenodd" clip-rule="evenodd" d="M35.57 37.09L21.03 37.13L21 22.43L35.57 22.41V37.09Z" fill="#1B4584"/>
<path fill-rule="evenodd" clip-rule="evenodd" d="M30.7603 53.74H43.4603H51.5902L51.6003 44.98L51.5902 31.67H43.4403L43.4603 44.99L30.7603 45.01V53.74Z" fill="#E1262A"/>
<path fill-rule="evenodd" clip-rule="evenodd" d="M30.7603 5.70999H43.4603H51.5902L51.6003 14.48L51.5902 27.78L43.4403 27.79L43.4603 14.45L30.7603 14.44V5.70999Z" fill="#E1262A"/>
<path fill-rule="evenodd" clip-rule="evenodd" d="M25.9401 53.74H13.2301H5.10008L5.08008 44.98L5.10008 31.67H13.2501L13.2301 44.99L25.9401 45.01V53.74Z" fill="#E1262A"/>
<path fill-rule="evenodd" clip-rule="evenodd" d="M25.9401 5.70999H13.2301H5.10008L5.08008 14.48L5.10008 27.78L13.2501 27.79L13.2301 14.45L25.9401 14.44V5.70999Z" fill="#E1262A"/>
<path fill-rule="evenodd" clip-rule="evenodd" d="M97.8201 22.61H99.5201C104.3 22.61 106.18 24.13 106.19 29.82C106.19 34.97 103.92 37.21 99.7201 37.22H97.8201V22.61ZM100.66 43.61C109.43 43.61 115.16 39.61 115.16 29.35C115.16 20.35 109.68 16.23 100.86 16.23H88.8601V43.61H100.66Z" fill="white"/>
<path fill-rule="evenodd" clip-rule="evenodd" d="M129.71 32C132.55 32 134.65 32.15 134.65 34.57C134.65 36.57 132.96 37.08 130.75 37.08H126.86V32H129.71ZM129.98 22.45C131.88 22.45 133.61 22.45 133.61 24.62C133.61 26.22 132.35 27.01 130.61 27.01H126.83V22.43L129.98 22.45ZM131.23 43.45C138.34 43.45 143.01 41.3 143 35.18C143.083 33.77 142.675 32.3748 141.846 31.2317C141.016 30.0886 139.816 29.2682 138.45 28.91C139.503 28.2938 140.381 27.4195 141.002 26.3698C141.623 25.32 141.967 24.1293 142 22.91C142 17.47 137.07 16.01 130.92 16.03H117.85V43.41L131.23 43.45Z" fill="white"/>
<path fill-rule="evenodd" clip-rule="evenodd" d="M151 28.21V18.09H157.43V19.57H153.27V22.13H157.17V23.62H153.27V28.21H151Z" fill="white"/>
<path d="M163.73 18.09H161.46V28.21H163.73V18.09Z" fill="white"/>
<path fill-rule="evenodd" clip-rule="evenodd" d="M173.8 18.09H176.06V28.2H173.7L171.93 24.6C171.293 23.3093 170.755 21.9721 170.32 20.6C170.4 21.43 170.5 22.46 170.56 23.49C170.62 24.52 170.68 25.49 170.68 26.32V28.22H168.4V18.09H170.75L172.52 21.77C173.154 23.0633 173.695 24.4 174.14 25.77V25.77C174.06 24.86 173.98 23.88 173.92 22.9C173.86 21.92 173.81 20.96 173.81 20.06L173.8 18.09Z" fill="white"/>
<path fill-rule="evenodd" clip-rule="evenodd" d="M179.73 28.2L182.63 18.09H185.69L188.44 28.2H186L185.4 25.64H182.74L182.15 28.2H179.73ZM183.12 24.2H185.06L184.44 21.32C184.33 20.85 184.28 20.39 184.21 19.92C184.21 19.69 184.16 19.46 184.14 19.25C184.14 19.46 184.07 19.69 184.05 19.92C184.001 20.3902 183.928 20.8575 183.83 21.32L183.12 24.2Z" fill="white"/>
<path fill-rule="evenodd" clip-rule="evenodd" d="M197.54 18.09H199.81V28.2H197.45L195.68 24.6C195.043 23.3078 194.502 21.9709 194.06 20.6V20.6C194.14 21.43 194.24 22.46 194.3 23.49C194.36 24.52 194.42 25.49 194.42 26.32V28.22H192.14V18.09H194.5L196.26 21.77C196.894 23.0633 197.435 24.4 197.88 25.77V25.77C197.8 24.86 197.72 23.88 197.65 22.9C197.58 21.92 197.54 20.96 197.54 20.06V18.09Z" fill="white"/>
<path fill-rule="evenodd" clip-rule="evenodd" d="M211.63 24.6C211.63 24.79 211.63 24.99 211.63 25.18C211.51 27.03 210.77 28.45 208.24 28.45C204.52 28.45 204.24 26.45 204.24 23.78V22.33C204.35 19.76 204.59 17.84 208.24 17.84C210.24 17.84 211.4 18.73 211.56 20.46C211.59 20.7158 211.59 20.9742 211.56 21.23H209.33C209.24 20.58 209.33 19.37 208.2 19.37C206.42 19.37 206.57 21.13 206.57 21.91V24.72C206.57 25.56 206.65 26.92 208.2 26.92C209.45 26.92 209.31 25.25 209.35 24.6H211.63Z" fill="white"/>
<path d="M218.15 18.09H215.89V28.21H218.15V18.09Z" fill="white"/>
<path fill-rule="evenodd" clip-rule="evenodd" d="M221.84 28.2L224.74 18.09H227.8L230.55 28.2H228.12L227.52 25.64H224.86L224.27 28.2H221.84ZM225.22 24.2H227.16L226.54 21.32C226.44 20.85 226.39 20.39 226.33 19.92C226.33 19.69 226.27 19.46 226.25 19.25C226.25 19.46 226.18 19.69 226.17 19.92C226.118 20.3903 226.041 20.8576 225.94 21.32L225.22 24.2Z" fill="white"/>
<path fill-rule="evenodd" clip-rule="evenodd" d="M234.22 28.21V18.09H236.49V26.72H240.69V28.21H234.22Z" fill="white"/>
<path fill-rule="evenodd" clip-rule="evenodd" d="M155.56 34.41C155.56 33.5 155.47 32.61 154.23 32.61C153.46 32.61 152.97 32.87 152.97 33.56C152.97 34.25 153.56 34.62 154.27 35C155.23 35.4782 156.15 36.0334 157.02 36.66C157.351 36.8988 157.617 37.2175 157.791 37.5864C157.966 37.9553 158.045 38.3625 158.02 38.77C158.02 40.69 156.5 41.69 154.29 41.69C151.56 41.69 150.59 40.42 150.59 38.61V37.87H152.86V38.46C152.86 39.46 153.17 40.16 154.29 40.16C155.24 40.16 155.7 39.75 155.7 38.98C155.691 38.6932 155.601 38.4149 155.44 38.1776C155.279 37.9403 155.053 37.7538 154.79 37.64C153.61 36.87 152.13 36.32 151.21 35.31C150.84 34.8733 150.632 34.3223 150.62 33.75C150.62 32.03 151.79 31.09 154.19 31.09C157.8 31.09 157.7 33.41 157.72 34.41H155.56Z" fill="white"/>
<path fill-rule="evenodd" clip-rule="evenodd" d="M163.09 41.45V31.33H169.47V32.81H165.36V35.36H169.15V36.85H165.36V39.96H169.47V41.45H163.09Z" fill="white"/>
<path fill-rule="evenodd" clip-rule="evenodd" d="M176.72 37.09V41.45H174.46V31.33H178.74C180.74 31.33 182.2 31.89 182.2 33.75C182.2 34.86 181.86 36.02 180.34 36.2C181.67 36.36 182.08 37.07 182.08 38.04C182.08 38.45 182.02 40.94 182.57 41.24V41.43H180.08C179.865 40.5913 179.784 39.724 179.84 38.86C179.84 38.24 179.84 37.39 179.06 37.2C178.424 37.0811 177.776 37.0375 177.13 37.07L176.72 37.09ZM176.72 35.6H178.51C178.697 35.6073 178.883 35.5737 179.056 35.5017C179.229 35.4297 179.384 35.3209 179.511 35.183C179.637 35.045 179.732 34.8811 179.789 34.7028C179.846 34.5244 179.863 34.3358 179.84 34.15C179.84 33.02 179.26 32.83 178.4 32.82H176.72V35.6Z" fill="white"/>
<path fill-rule="evenodd" clip-rule="evenodd" d="M192.76 31.33H195.19L192.57 41.45H189.57L186.88 31.33H189.31L190.73 37.82C190.855 38.3873 190.945 38.9617 191 39.54C191.049 39.818 191.082 40.0984 191.1 40.38V40.38C191.118 40.0984 191.151 39.818 191.2 39.54C191.263 38.9622 191.357 38.3881 191.48 37.82L192.76 31.33Z" fill="white"/>
<path d="M202.14 31.33H199.87V41.45H202.14V31.33Z" fill="white"/>
<path fill-rule="evenodd" clip-rule="evenodd" d="M214.77 37.84C214.77 38.03 214.77 38.24 214.77 38.43C214.66 40.27 213.91 41.69 211.39 41.69C207.66 41.69 207.39 39.69 207.39 37.02V35.58C207.48 33 207.73 31.09 211.39 31.09C213.39 31.09 214.55 31.98 214.71 33.71C214.746 33.9616 214.763 34.2157 214.76 34.47H212.52C212.43 33.82 212.52 32.61 211.39 32.61C209.61 32.61 209.75 34.37 209.75 35.16V38C209.75 38.83 209.84 40.19 211.39 40.19C212.63 40.19 212.49 38.52 212.54 37.87L214.77 37.84Z" fill="white"/>
<path fill-rule="evenodd" clip-rule="evenodd" d="M219.77 41.45V31.33H226.14V32.81H222.03V35.36H225.82V36.85H222.03V39.96H226.14V41.45H219.77Z" fill="white"/>
<path fill-rule="evenodd" clip-rule="evenodd" d="M235.79 34.41C235.79 33.5 235.71 32.61 234.47 32.61C233.71 32.61 233.22 32.87 233.22 33.56C233.22 34.25 233.8 34.62 234.51 35C235.472 35.4804 236.395 36.0355 237.27 36.66C237.601 36.8988 237.866 37.2175 238.041 37.5864C238.216 37.9553 238.295 38.3625 238.27 38.77C238.27 40.69 236.75 41.69 234.53 41.69C231.81 41.69 230.84 40.42 230.84 38.61V37.87H233.1V38.46C233.05 39.46 233.41 40.16 234.53 40.16C235.48 40.16 235.94 39.75 235.94 38.98C235.93 38.6921 235.839 38.413 235.676 38.1756C235.513 37.9382 235.285 37.7523 235.02 37.64C233.85 36.87 232.38 36.32 231.45 35.31C231.082 34.8727 230.877 34.3214 230.87 33.75C230.87 32.03 232.04 31.09 234.44 31.09C238.04 31.09 237.94 33.41 237.96 34.41H235.79Z" fill="white"/>
</svg>
